<svg width="200" height="24" viewBox="0 0 200 24" fill="none" xmlns="http://www.w3.org/2000/svg">
<path d="M75.2272 0.411133H93.1428L92.6301 3.35198C92.4667 4.64776 91.3738 5.66184 90.0385 5.66748H74.2244C73.0526 5.70128 72.0836 6.49565 71.7794 7.57734L72.1118 5.66748L72.6357 2.70973C72.7934 1.41395 73.8864 0.411133 75.2272 0.411133Z" fill="#42BA78"/>
<path d="M22.0226 3.77482L17.8648 7.77483C16.9521 6.23117 15.4704 5.47624 13.3578 5.47624C8.78874 5.47624 6.07888 8.52976 6.07888 13.572C6.07888 16.6932 8.00001 18.5523 10.8676 18.5523C12.9127 18.5523 14.7099 17.7974 16.2254 16.2819L19.4366 21.0368C17.1042 23.0199 14.1465 24.0002 10.5183 24.0002C7.27325 24.0002 4.72113 23.0875 2.83381 21.2622C0.946481 19.403 0 16.9467 0 13.8875C0 10.141 1.32395 6.89596 4.00001 4.15229C6.67607 1.40862 9.89297 0.0283401 13.7014 0.0283401C17.6169 0.0227062 19.8817 1.22271 22.0226 3.77482Z" fill="#42BA78"/>
<path d="M60.8515 0.410907C62.9924 0.410907 64.7896 1.04189 66.2375 2.29823C67.7191 3.56021 68.4403 5.19965 68.4403 7.21092C68.4403 10.7095 66.3952 13.5433 63.2741 14.9292L66.8008 23.5602H60.3727L57.3191 15.8757H54.5811L53.229 23.5602H47.2402L51.3022 0.405273H60.8515V0.410907ZM56.4065 5.54331L55.46 10.7433H59.0487C60.8459 10.7433 62.3276 9.51515 62.3276 7.62218C62.3276 6.33204 61.4149 5.54331 59.9952 5.54331H56.4065Z" fill="#42BA78"/>
<path d="M112.844 2.70986L109.126 7.21691C107.898 6.05071 106.224 5.45353 104.179 5.45353C102.382 5.45353 101.092 6.02254 101.092 7.25071C101.092 8.12959 101.847 8.63663 104.461 9.13804C109.469 10.1127 111.329 12.2592 111.329 15.6282C111.329 21.5493 106.286 23.9775 101.216 23.9775C97.3399 23.9775 94.3145 22.8451 92.1455 20.5747L95.8638 16.0057C96.4328 16.7944 97.2497 17.3916 98.354 17.8648C99.4582 18.3042 100.591 18.524 101.695 18.524C103.993 18.524 105.16 17.893 105.16 16.6648C105.16 15.7521 104.371 15.2507 101.695 14.7099C97.2554 13.7972 95.0469 11.6564 95.0469 8.25353C95.0469 5.89297 95.9314 3.90423 97.6948 2.36057C99.4864 0.788733 101.723 0 104.461 0C108.022 0 110.793 0.912677 112.844 2.70986Z" fill="#05406B"/>
<path d="M135.29 0.411133L134.378 5.67311H127.318L124.169 23.5661H118.18L121.33 5.67311H114.271L115.183 0.411133H135.29Z" fill="#05406B"/>
<path d="M175.459 3.74648L171.301 7.74649C170.389 6.20283 168.907 5.44789 166.794 5.44789C162.225 5.44789 159.515 8.50142 159.515 13.5437C159.515 16.6648 161.437 18.524 164.304 18.524C166.349 18.524 168.146 17.769 169.662 16.2535L172.873 21.0085C170.541 22.9916 167.583 23.9719 163.955 23.9719C160.71 23.9719 158.158 23.0592 156.27 21.2338C154.383 19.3747 153.437 16.9183 153.437 13.8592C153.437 10.1127 154.76 6.86761 157.437 4.12395C160.113 1.38592 163.329 0 167.144 0C171.048 0 173.318 1.19437 175.459 3.74648Z" fill="#05406B"/>
<path d="M187.425 11.3013L198.563 0.411133H191.493L182.862 8.86748L184.349 0.411133H178.411L174.332 23.5605H180.276L181.538 16.4168L182.8 15.1717L188.022 23.5605H195.064L187.425 11.3013Z" fill="#05406B"/>
<path d="M73.6569 9.35742H91.5724L91.0597 12.2983C90.8963 13.594 89.8034 14.6081 88.4682 14.6138H72.6541C71.4822 14.6476 70.5132 15.4419 70.209 16.5236L70.5414 14.6138L71.0653 11.656C71.2231 10.3602 72.316 9.35742 73.6569 9.35742Z" fill="#42BA78"/>
<path d="M68.9641 23.561L69.4881 20.6033C69.6514 19.3075 70.7444 18.3047 72.0852 18.3047H90.0008L89.4881 21.2455C89.3247 22.5413 88.2317 23.5554 86.8965 23.561H68.9641Z" fill="#42BA78"/>
<path d="M45.4817 23.5717L39.0874 8.42241L35.7071 0.411133L33.2958 4.03367L20.293 23.5605V23.5661H26.2817V23.5605H27.3747L34.5409 12.8055L39.0817 23.5661L45.4817 23.5717Z" fill="#42BA78"/>
<path d="M153.285 23.1606L146.885 8.01128L143.511 0L141.094 3.62254L128.091 23.1493V23.155H134.079V23.1493H135.178L142.339 12.3944L146.88 23.155L153.285 23.1606Z" fill="#05406B"/>
</svg>
