<svg xmlns="http://www.w3.org/2000/svg" viewBox="0 0 619.82 66.68"><defs><style>.cls-1{fill:#162850;}.cls-2{fill:#f16123;}</style></defs><g id="Layer_2" data-name="Layer 2"><g id="Layer_1-2" data-name="Layer 1"><path class="cls-1" d="M433.81,24h8.37c8,0,13.62,2.51,13.62,11.41C455.8,44,450,47,442.18,47h-8.37Zm6.13,18.47h2.37c4.58,0,7.16-2.38,7.16-7s-2.67-7-7.16-7h-2.37Z"/><path class="cls-1" d="M467.87,24h16.22v4.35H474v4.75h9.53v4.35H474v5.21h10.45V47H467.87Z"/><path class="cls-1" d="M496.86,24h7.81l7.78,15.63h.07L512.42,24H518V47h-7.61L502.36,31.3h-.06L502.49,47h-5.63Z"/><path class="cls-1" d="M534.94,28.56h-5.67V24h17.48v4.55h-5.67V47h-6.14Z"/><path class="cls-1" d="M562.31,24h7.52l8.87,23H572l-1.71-4.92h-8.64L559.81,47h-6.23Zm3.76,4.75H566l-3,9h5.77Z"/><path class="cls-1" d="M589.69,24h6.13V42.48h9.49V47H589.69Z"/><rect class="cls-2" x="416.79" y="9.31" width="202.02" height="2.46"/><rect class="cls-2" x="416.79" y="58.98" width="202.02" height="2.46"/><path class="cls-2" d="M90,45.67A20.95,20.95,0,0,1,54.7,60.2l-.08-.08-4-4a1.86,1.86,0,0,1-.53-1.3,1.81,1.81,0,0,1,.53-1.29l2.94-2.94a2,2,0,0,1,2.7,0l3.91,3.91A13.06,13.06,0,1,0,67,32a13.44,13.44,0,0,0-7.44,3.86L49.53,45.92l-.41.45L35.77,59.72a20.93,20.93,0,0,1-29.94-.33A20.79,20.79,0,0,1,0,44,21,21,0,0,1,35.27,29.6l.09.09,4,4a1.85,1.85,0,0,1,0,2.61l-2.85,2.85a2.05,2.05,0,0,1-2.84,0l-3.84-3.84a13.06,13.06,0,1,0-6.89,22.51A13.45,13.45,0,0,0,30.37,54L40.45,43.89l.4-.45L54,30.34a21.48,21.48,0,0,1,12.7-6.26A21,21,0,0,1,90,45.67ZM26.07,21.56h4.17A1.79,1.79,0,0,0,32,19.9a13.07,13.07,0,0,1,26-.06,1.85,1.85,0,0,0,1.85,1.72h4a2.05,2.05,0,0,0,1.51-.66,2,2,0,0,0,.54-1.54,21,21,0,0,0-41.8.14,1.93,1.93,0,0,0,1.93,2.06Z"/><path class="cls-1" d="M611.25,28.24a4.29,4.29,0,1,1,4.28,4.28A4.29,4.29,0,0,1,611.25,28.24Zm7.53,0a3.25,3.25,0,1,0-6.49,0,3.25,3.25,0,1,0,6.49,0Zm-4.9-2.45h1.81c1.16,0,1.79.4,1.79,1.42a1.21,1.21,0,0,1-1.27,1.31l1.31,2.13h-.93l-1.26-2.09h-.54v2.09h-.91Zm.91,2.08h.79c.54,0,1-.07,1-.73s-.52-.66-1-.66h-.8Z"/><path class="cls-1" d="M210.39,36.29V6.74a2.66,2.66,0,0,1,2.67-2.67h8.64a2.66,2.66,0,0,1,2.67,2.67V36.29c0,20.21-12.92,30.39-29.79,30.39S164.8,56.5,164.8,36.29v-29a3.2,3.2,0,0,1,3.2-3.2h8.11a2.67,2.67,0,0,1,2.67,2.67V36.29c0,14,9,17,15.8,17S210.39,50.27,210.39,36.29Z"/><path class="cls-1" d="M313.68,62.88a2.8,2.8,0,0,1-2.89,2H299.85a3.1,3.1,0,0,1-3-2L272.65,6a1.38,1.38,0,0,1,1.37-2H285a2.78,2.78,0,0,1,2.88,2l17.48,42L322.8,6a2.79,2.79,0,0,1,2.88-2h10.95a1.31,1.31,0,0,1,1.21,2Z"/><path class="cls-1" d="M137.75,66C119.66,66,105,51.24,105.48,33.29a32.11,32.11,0,0,1,27-30.58,32.55,32.55,0,0,1,25.3,6.45,2.14,2.14,0,0,1,.25,3.16l-5.66,6.09a2.69,2.69,0,0,1-3.53.31,19.42,19.42,0,0,0-15.13-3.06A18.88,18.88,0,0,0,137.75,53a19.15,19.15,0,0,0,11.78-4,2.9,2.9,0,0,1,3.82.14l5.8,5.59a2.22,2.22,0,0,1-.08,3.28A32.24,32.24,0,0,1,137.75,66Z"/><path class="cls-1" d="M398.57,32.62a31.89,31.89,0,0,0-11.65-22.49,2.38,2.38,0,0,0-.38-.4,32,32,0,0,0-25-6.46,31.56,31.56,0,0,0-17.59,9.24c-.28.29-.56.58-.83.88l-.58.65c-.49.57-1,1.16-1.41,1.76l-.22.3a32.27,32.27,0,0,0-2.66,4.37l-.07.15c-.37.73-.7,1.48-1,2.23-.05.15-.11.3-.17.44-.27.71-.53,1.43-.75,2.16l-.18.62c-.17.61-.32,1.21-.46,1.82-.07.3-.13.61-.19.92-.11.59-.21,1.18-.28,1.77,0,.25-.08.5-.1.75-.09.75-.13,1.51-.16,2.26l0,.32v1.25c0,.19,0,.39,0,.58,0,.49,0,1,.07,1.46v0A31.88,31.88,0,0,0,363.2,66.56a2.37,2.37,0,0,0,.6,0c1,.09,1.95.14,2.94.14a31.65,31.65,0,0,0,21.08-7.94,2.26,2.26,0,0,0,.08-3.3l-5.73-5.59a2.85,2.85,0,0,0-3.78-.15,18.74,18.74,0,0,1-11.65,4A19,19,0,0,1,348.87,41h47a2.67,2.67,0,0,0,2.66-2.67ZM355.05,19.93a18.89,18.89,0,0,1,29.3,8H349.1A19,19,0,0,1,355.05,19.93Z"/><path class="cls-1" d="M268.79,9.92a22.84,22.84,0,0,0-16.45-7c-11.47,0-22.53,8.18-22.53,19.6,0,.18,0,.36,0,.54h0V63.2A2.83,2.83,0,0,0,232.62,66h8.14a2.62,2.62,0,0,0,2.62-2.62V23.48c0-4.16,4.62-7.06,9-7.06a9.26,9.26,0,0,1,6.06,2.28,2.74,2.74,0,0,0,3.39.15l6.63-4.76A2.78,2.78,0,0,0,268.79,9.92Z"/></g></g></svg>